<svg version="1.1" xmlns="http://www.w3.org/2000/svg" viewBox="-286.719998550415 -1587.7120315551758 5991.4260641375 2411.520071411133"><desc>Created with Snap</desc><defs></defs><g><g transform="matrix(30.9848,0,0,30.9848,3507.4296,-1373.4665)"><title>SEO Internet Marketing Web Development</title><path d="M21.17,52.39a2.95,2.95,0,1,0,2.94,2.94A2.95,2.95,0,0,0,21.17,52.39Zm0,3.89a.95.95,0,1,1,0-1.89.95.95,0,0,1,0,1.89Z" fill="#210070" style=""></path><path d="M24,7H18.33a1,1,0,0,0,0,2H24a1,1,0,0,0,0-2Z" fill="#210070" style=""></path><path d="M60.16,28.46l-3.9-.63a17.64,17.64,0,0,0-2.32-5.56l2.32-3.18a1,1,0,0,0-.09-1.3l-3.62-3.63a1,1,0,0,0-1.3-.11L48,16.37a17.89,17.89,0,0,0-5.53-2.29l-.63-3.91a1,1,0,0,0-1-.84H39.33V4a1,1,0,0,0-1-1H4A1,1,0,0,0,3,4V60a1,1,0,0,0,1,1H38.33a1,1,0,0,0,1-1V54.67H40.9a1,1,0,0,0,1-.85l.62-3.91a18.25,18.25,0,0,0,5.55-2.3l3.21,2.32a1,1,0,0,0,1.3-.1l3.61-3.61a1,1,0,0,0,.1-1.29L53.94,41.7a17.89,17.89,0,0,0,2.3-5.54l3.91-.61a1,1,0,0,0,.85-1V29.45A1,1,0,0,0,60.16,28.46ZM5,13H37.33V49.67H5Zm34.33,7.57a11.52,11.52,0,0,1,8.28,4.65,11.46,11.46,0,0,1,0,13.56,11.52,11.52,0,0,1-8.28,4.65ZM5,5H37.33v6H5ZM37.33,59H5V51.67H37.33V59ZM59,33.71l-3.75.58a1,1,0,0,0-.82.8,16,16,0,0,1-2.53,6.07,1,1,0,0,0,0,1.15l2.24,3.1-2.4,2.4-3.09-2.23a1,1,0,0,0-1.15,0,16.24,16.24,0,0,1-6.08,2.52,1,1,0,0,0-.79.83L40,52.67h-.71V45.45A13.53,13.53,0,0,0,49.22,40a13.44,13.44,0,0,0,0-15.92,13.5,13.5,0,0,0-9.89-5.49V11.33H40l.61,3.74a1,1,0,0,0,.8.82,16.34,16.34,0,0,1,6.06,2.52,1,1,0,0,0,1.15,0l3.07-2.22,2.42,2.42-2.23,3.07a1,1,0,0,0,0,1.16,15.59,15.59,0,0,1,2.54,6.07,1,1,0,0,0,.82.81l3.74.6Z" fill="#210070" style=""></path><path d="M19.75,17.5H9.58a1,1,0,0,0-1,1v8.83a1,1,0,0,0,1,1H19.75a1,1,0,0,0,1-1V18.5A1,1,0,0,0,19.75,17.5Zm-1,8.83H10.58V19.5h8.17Z" fill="#210070" style=""></path><path d="M33.59,19.39h-9.9a1,1,0,1,0,0,2h9.9a1,1,0,0,0,0-2Z" fill="#210070" style=""></path><path d="M33.59,24.45h-9.9a1,1,0,0,0,0,2h9.9a1,1,0,0,0,0-2Z" fill="#210070" style=""></path><path d="M19.75,34.42H9.58a1,1,0,0,0-1,1v8.83a1,1,0,0,0,1,1H19.75a1,1,0,0,0,1-1V35.42A1,1,0,0,0,19.75,34.42Zm-1,8.83H10.58V36.42h8.17Z" fill="#210070" style=""></path><path d="M33.59,36.3h-9.9a1,1,0,1,0,0,2h9.9a1,1,0,0,0,0-2Z" fill="#210070" style=""></path><path d="M33.59,41.36h-9.9a1,1,0,1,0,0,2h9.9a1,1,0,0,0,0-2Z" fill="#210070" style=""></path><desc>Created with Snap</desc><defs></defs></g><g><g transform="matrix(1.024,0,0,-1.024,0,0)"><path d="M479 51Q469 75 457 106Q446 138 433 173Q403 172 370 171Q337 171 303 171Q260 171 225 171Q190 171 161 172Q149 137 138 106Q127 75 117 51Q97 0 59 0Q45 0 32 9Q20 18 20 35Q20 52 26 79Q32 107 41 138Q51 170 62 203Q73 237 83 266Q93 298 111 347Q130 397 151 451Q172 505 193 557Q214 610 231 649Q235 659 241 671Q247 684 255 695Q264 706 274 714Q285 722 298 722Q311 722 322 713Q333 705 341 693Q350 681 356 668Q363 655 367 645Q383 605 403 553Q424 501 444 448Q465 395 483 347Q501 299 512 266Q521 237 532 204Q544 171 554 139Q564 107 570 79Q577 52 577 35Q577 18 564 9Q552 0 538 0Q520 0 505 12Q490 25 479 51ZM302 271Q326 271 350 270Q374 270 398 269Q386 304 374 339Q362 374 351 406Q341 438 332 465Q324 493 318 514Q314 527 309 535Q304 543 296 543Q288 543 283 534Q278 526 274 513Q262 472 240 406Q219 341 195 269Q222 270 249 270Q276 271 302 271ZM663 61Q659 96 658 146Q657 196 657 267Q657 337 657 380Q658 423 663 456Q668 497 678 509Q689 521 706 521Q718 521 727 519Q737 517 744 510Q752 504 756 492Q760 480 760 459Q760 455 761 451Q761 447 761 442Q762 438 762 432Q789 466 823 490Q858 514 902 514Q961 514 961 465Q961 447 953 435Q946 423 932 415Q919 408 901 404Q884 400 863 396Q831 390 803 373Q775 357 765 332Q765 313 765 304Q766 295 766 289Q767 283 767 276Q767 269 767 254Q767 203 765 158Q763 114 761 62Q760 38 755 25Q751 12 744 5Q738 -2 730 -4Q722 -5 714 -5Q686 -5 676 7Q667 20 663 61ZM1263 510Q1292 510 1321 505Q1351 500 1375 491Q1399 482 1414 469Q1429 456 1429 439Q1429 395 1379 395Q1367 395 1356 398Q1346 402 1332 405Q1318 409 1297 412Q1276 416 1245 416Q1179 416 1143 371Q1107 326 1107 254Q1107 175 1143 127Q1180 79 1247 79Q1289 79 1315 86Q1341 93 1357 102Q1374 111 1384 118Q1395 125 1408 125Q1426 125 1436 117Q1447 110 1447 87Q1447 63 1428 45Q1410 27 1382 15Q1354 3 1321 -3Q1289 -9 1262 -9Q1141 -9 1072 58Q1003 125 1003 248Q1003 301 1019 348Q1036 396 1069 432Q1102 468 1150 489Q1199 510 1263 510ZM1766 411Q1729 411 1699 400Q1670 389 1633 370Q1633 369 1633 351Q1633 333 1632 305Q1632 277 1631 242Q1631 208 1630 173Q1630 139 1628 108Q1627 77 1626 56Q1624 35 1621 23Q1619 11 1615 5Q1612 0 1606 -1Q1600 -2 1593 -2Q1576 -2 1566 -1Q1557 1 1551 6Q1545 12 1542 23Q1540 34 1538 53Q1536 72 1534 105Q1533 139 1532 180Q1531 222 1530 269Q1530 316 1530 362Q1530 408 1530 459Q1531 511 1532 558Q1533 606 1534 643Q1535 681 1537 699Q1539 725 1546 744Q1554 763 1580 763Q1600 763 1612 749Q1625 735 1627 696Q1629 661 1630 598Q1632 536 1633 458Q1647 469 1667 478Q1687 488 1709 494Q1731 501 1754 505Q1777 509 1797 509Q1845 509 1880 486Q1916 464 1937 422Q1951 395 1958 362Q1965 330 1968 294Q1969 278 1970 262Q1971 247 1971 229Q1972 212 1972 190Q1972 168 1972 138Q1972 108 1971 82Q1970 57 1965 38Q1961 20 1951 9Q1941 -1 1923 -1Q1897 -1 1884 15Q1872 32 1872 55Q1872 56 1872 76Q1872 96 1871 122Q1871 149 1870 176Q1870 203 1869 220Q1868 236 1866 254Q1865 273 1862 292Q1860 311 1856 328Q1852 346 1846 360Q1832 393 1811 402Q1790 411 1766 411ZM2094 62Q2092 99 2090 146Q2089 194 2089 251Q2089 322 2090 372Q2091 423 2095 455Q2100 488 2110 503Q2120 519 2138 519Q2155 519 2168 507Q2181 495 2183 455Q2189 350 2189 252Q2189 202 2187 158Q2185 115 2183 63Q2182 39 2178 26Q2175 13 2169 6Q2163 -1 2155 -3Q2148 -4 2138 -4Q2120 -4 2108 8Q2096 21 2094 62ZM2139 700Q2162 700 2181 682Q2201 664 2201 639Q2201 615 2181 597Q2161 580 2136 580Q2115 580 2096 597Q2078 615 2078 641Q2078 665 2096 682Q2115 700 2139 700ZM2544 184Q2509 184 2470 189Q2432 195 2387 213Q2396 152 2437 121Q2479 90 2557 90Q2585 90 2607 93Q2630 97 2647 101Q2664 106 2677 109Q2690 113 2701 113Q2715 113 2728 104Q2741 96 2741 76Q2741 51 2720 35Q2700 19 2670 9Q2641 0 2608 -4Q2575 -7 2550 -7Q2491 -7 2441 9Q2392 25 2356 57Q2320 90 2300 138Q2280 186 2280 250Q2280 312 2299 360Q2319 408 2353 441Q2387 474 2433 491Q2480 508 2534 508Q2576 508 2615 497Q2655 486 2685 464Q2716 442 2734 408Q2753 375 2753 330Q2753 290 2738 262Q2723 234 2695 217Q2668 200 2629 192Q2591 184 2544 184ZM2537 416Q2510 416 2485 409Q2460 403 2439 388Q2419 374 2405 350Q2391 327 2386 292Q2424 275 2460 268Q2496 262 2536 262Q2595 262 2623 276Q2652 291 2652 329Q2652 364 2625 390Q2599 416 2537 416ZM3024 522Q3045 522 3077 518Q3109 515 3138 505Q3167 496 3188 479Q3209 462 3209 436Q3209 421 3200 410Q3192 399 3174 399Q3161 399 3144 403Q3128 407 3108 412Q3089 418 3066 422Q3044 426 3019 426Q2977 426 2950 413Q2924 400 2924 372Q2924 356 2933 345Q2943 334 2959 325Q2976 317 2998 311Q3021 305 3046 299Q3077 291 3107 281Q3138 271 3162 253Q3186 236 3201 209Q3216 183 3216 144Q3216 70 3160 26Q3104 -17 2995 -17Q2971 -17 2938 -14Q2905 -10 2876 -1Q2847 9 2826 26Q2806 44 2806 73Q2806 93 2815 103Q2825 114 2839 114Q2850 114 2862 107Q2874 100 2891 92Q2908 84 2932 77Q2956 70 2991 70Q3004 70 3025 71Q3046 73 3066 80Q3087 87 3101 99Q3116 112 3116 135Q3116 153 3106 165Q3096 178 3079 187Q3062 196 3039 202Q3017 209 2992 216Q2963 224 2933 234Q2904 244 2880 260Q2856 276 2841 300Q2826 325 2826 361Q2826 395 2840 424Q2854 454 2880 476Q2906 498 2942 510Q2979 522 3024 522Z" fill="#210070" style=""></path></g></g></g></svg>