<svg xmlns="http://www.w3.org/2000/svg" version="1.1" viewBox="-1539.863 -1032.2 4603.063 1673.6"><desc>Created with Snap</desc><g><g transform="matrix(1.3374,0,0,1.3374,-1454.6667,-880.1354)"><g><polyline fill="none" stroke="#195190" stroke-miterlimit="10" stroke-width="80" points="557.6 579.7 404.1 442.2 557.6 304.7"/><polyline fill="none" stroke="#195190" stroke-miterlimit="10" stroke-width="80" points="704.5 304.7 858 442.2 704.5 579.7"/><path fill="none" stroke="#195190" stroke-miterlimit="10" stroke-width="80" d="M630,675v207.5c0,13.8-10.2,25.5-24,25.5H192 c-13.8,0-26-11.8-26-25.5v-742c0-13.8,12.3-24.5,26-24.5h414c13.8,0,24,10.8,24,24.5V209"/><circle cx="398.5" cy="781.5" r="50" fill="#195190"/></g><desc>Created with Snap</desc></g><g><g><path fill="#195190" d="M233 725L309 720Q337 596 424 369Q511 143 539 31Q539 2 529 -13Q519 -27 504 -27Q491 -27 479 -17Q468 -6 464 13Q455 57 406 189Q200 215 147 221Q134 185 115 104Q96 23 85 -8Q70 -26 51 -26Q30 -26 15 -8Q0 11 0 38Q32 155 116 382Q200 609 233 725ZM268 624Q248 503 157 269L269 269Q345 269 396 264Q293 485 268 624ZM909 381L865 384Q844 440 794 440Q772 440 747 430Q723 420 707 409Q691 399 665 379Q665 365 664 288Q664 211 665 117Q667 23 669 16Q660 -14 634 -14Q616 -14 599 0Q583 15 579 36Q598 357 613 521L658 511L661 444Q731 502 781 502Q836 502 873 477Q911 452 911 404Q911 389 909 381ZM1288 496L1283 453Q1241 459 1211 459Q1142 459 1097 417Q1052 376 1035 319Q1019 263 1019 194Q1019 162 1023 137Q1027 112 1037 88Q1048 64 1070 50Q1093 37 1126 37Q1170 37 1238 54Q1259 62 1271 62Q1295 62 1300 6Q1212 -22 1137 -22Q1028 -22 989 31Q951 85 951 205Q951 275 960 327Q970 380 994 425Q1018 471 1063 495Q1109 519 1175 519Q1249 519 1288 496ZM1356 720L1408 708Q1411 667 1412 577Q1414 487 1416 453Q1470 510 1546 510Q1614 510 1663 462Q1713 414 1713 334L1713 5Q1700 -1 1680 -1Q1658 -1 1640 3Q1640 11 1640 27Q1641 44 1641 52Q1641 91 1638 186Q1635 282 1635 346Q1620 438 1542 438Q1508 438 1475 419Q1442 401 1427 376Q1430 313 1431 186Q1432 59 1434 3Q1410 -1 1393 -1Q1368 -1 1351 5Q1353 54 1353 160Q1353 207 1352 332Q1351 458 1351 548Q1352 639 1356 720ZM1817 514L1863 504Q1871 422 1877 246Q1883 71 1885 29Q1876 -2 1850 -2Q1832 -2 1815 12Q1799 27 1795 48Q1797 89 1803 261Q1809 434 1817 514ZM1831 693Q1858 693 1876 669Q1894 646 1894 616Q1894 594 1883 580Q1873 567 1855 567Q1827 567 1811 590Q1795 613 1795 644Q1795 666 1804 679Q1814 693 1831 693ZM2379 97L2389 53Q2345 37 2258 17Q2172 -2 2130 -2Q2087 -2 2055 26Q2023 55 2007 99Q1991 144 1983 187Q1976 231 1976 273Q1976 523 2202 523Q2256 523 2297 488Q2338 454 2338 399Q2338 369 2321 346Q2305 323 2281 309Q2258 296 2221 285Q2185 274 2157 269Q2129 264 2090 258Q2051 252 2036 249Q2037 220 2039 198Q2042 176 2049 150Q2057 125 2069 108Q2082 92 2104 81Q2126 70 2156 70Q2192 70 2244 76Q2296 83 2336 90Q2377 97 2379 97ZM2040 311Q2176 350 2263 393Q2256 426 2244 441Q2232 456 2208 456Q2147 456 2097 414Q2048 372 2040 311ZM2737 482L2727 442Q2630 482 2576 482Q2528 482 2508 467Q2489 453 2489 406Q2489 368 2516 343Q2544 318 2583 303Q2622 289 2661 272Q2701 256 2728 224Q2756 192 2756 145Q2756 81 2709 33Q2662 -15 2587 -16Q2532 -16 2484 7Q2436 30 2408 65L2437 95Q2449 90 2472 79Q2496 68 2506 64Q2516 61 2535 57Q2555 53 2577 53Q2624 53 2654 74Q2684 95 2684 133Q2684 158 2670 175Q2656 193 2633 204Q2610 215 2582 225Q2555 235 2527 247Q2500 260 2477 277Q2454 295 2440 325Q2426 355 2426 396Q2426 456 2458 496Q2491 537 2550 537Q2573 537 2602 530Q2631 523 2648 517Q2665 511 2698 497Q2732 484 2737 482Z" transform="matrix(1,0,0,-1,0,0)"/></g></g><g><g><path fill="#195190" transform="matrix(1,0,0,1,0,0) matrix(1,0,0,-1,0,0)"/></g></g></g></svg>